<?xml version="1.0" encoding="UTF-8"?>
<!DOCTYPE svg PUBLIC "-//W3C//DTD SVG 1.1//EN" "http://www.w3.org/Graphics/SVG/1.1/DTD/svg11.dtd">
<svg xmlns="http://www.w3.org/2000/svg" version="1.1" width="200px" height="200px" style="shape-rendering:geometricPrecision; text-rendering:geometricPrecision; image-rendering:optimizeQuality; fill-rule:evenodd; clip-rule:evenodd" xmlns:xlink="http://www.w3.org/1999/xlink">
<g><path style="opacity:0.979" fill="#ffffff" d="M 57.5,15.5 C 85.502,15.3334 113.502,15.5 141.5,16C 166,19.1667 179.833,33 183,57.5C 183.667,85.5 183.667,113.5 183,141.5C 179.833,166 166,179.833 141.5,183C 113.5,183.667 85.5,183.667 57.5,183C 33,179.833 19.1667,166 16,141.5C 15.3333,113.5 15.3333,85.5 16,57.5C 19.3449,32.989 33.1783,18.989 57.5,15.5 Z M 55.5,68.5 C 70.9226,73.5892 80.9226,83.9226 85.5,99.5C 81.0885,114.415 71.5885,124.749 57,130.5C 51.977,129.392 50.3103,126.392 52,121.5C 58.2358,117.933 63.9025,113.6 69,108.5C 75,102.5 75,96.5 69,90.5C 63.9025,85.4 58.2358,81.0667 52,77.5C 50.6649,73.3919 51.8316,70.3919 55.5,68.5 Z M 106.5,118.5 C 118.505,118.333 130.505,118.5 142.5,119C 146.213,120.691 147.379,123.525 146,127.5C 145.097,128.701 143.931,129.535 142.5,130C 130.5,130.667 118.5,130.667 106.5,130C 102.787,128.309 101.621,125.475 103,121.5C 104.145,120.364 105.312,119.364 106.5,118.5 Z"/></g>
</svg>
